<svg xmlns="http://www.w3.org/2000/svg" viewBox="0 0 100 100">
  <defs>
    <linearGradient id="krakenGradient" x1="0%" y1="0%" x2="100%" y2="100%">
      <stop offset="0%" style="stop-color:#4338ca;stop-opacity:1" />
      <stop offset="100%" style="stop-color:#06b6d4;stop-opacity:1" />
    </linearGradient>
  </defs>
  
  <!-- Kraken body -->
  <circle cx="50" cy="45" r="20" fill="url(#krakenGradient)"/>
  
  <!-- Eyes -->
  <circle cx="44" cy="40" r="3" fill="white"/>
  <circle cx="56" cy="40" r="3" fill="white"/>
  <circle cx="44" cy="40" r="1.5" fill="#1e293b"/>
  <circle cx="56" cy="40" r="1.5" fill="#1e293b"/>
  
  <!-- Tentacles -->
  <path d="M35 55 Q30 65 25 75 Q20 80 15 85" stroke="url(#krakenGradient)" stroke-width="4" fill="none" stroke-linecap="round"/>
  <path d="M40 60 Q35 70 30 80 Q25 85 20 90" stroke="url(#krakenGradient)" stroke-width="4" fill="none" stroke-linecap="round"/>
  <path d="M60 60 Q65 70 70 80 Q75 85 80 90" stroke="url(#krakenGradient)" stroke-width="4" fill="none" stroke-linecap="round"/>
  <path d="M65 55 Q70 65 75 75 Q80 80 85 85" stroke="url(#krakenGradient)" stroke-width="4" fill="none" stroke-linecap="round"/>
  
  <!-- Additional tentacles for depth -->
  <path d="M45 65 Q40 75 35 85 Q30 90 25 95" stroke="url(#krakenGradient)" stroke-width="3" fill="none" stroke-linecap="round" opacity="0.8"/>
  <path d="M55 65 Q60 75 65 85 Q70 90 75 95" stroke="url(#krakenGradient)" stroke-width="3" fill="none" stroke-linecap="round" opacity="0.8"/>
  
  <!-- Mouth -->
  <ellipse cx="50" cy="48" rx="4" ry="2" fill="#1e293b" opacity="0.7"/>
</svg>